<svg width="184" height="149" viewBox="0 0 184 149" fill="none">
<path d="M52.8231 0.452148H26.7109V26.5644H52.8231V0.452148Z" fill="#19222E"/>
<path d="M105.024 0.452148H78.9114V26.5644H105.024V0.452148Z" fill="#19222E"/>
<path d="M157.224 0.452148H131.111V26.5644H157.224V0.452148Z" fill="#19222E"/>
<path d="M26.7108 35.3773H0.598633V61.4895H26.7108V35.3773Z" fill="#19222E"/>
<path d="M78.9113 35.3772H52.7991V61.4894H78.9113V35.3772Z" fill="#19222E"/>
<path d="M131.111 35.3772H104.999V61.4894H131.111V35.3772Z" fill="#19222E"/>
<path d="M183.36 35.3772H157.248V61.4894H183.36V35.3772Z" fill="#19222E"/>
<path d="M131.136 148.602H157.248V122.49H131.136V148.602Z" fill="#19222E"/>
<path d="M78.9476 148.602H105.06V122.49H78.9476V148.602Z" fill="#19222E"/>
<path d="M26.7472 148.602H52.8594V122.49H26.7472L26.7472 148.602Z" fill="#19222E"/>
<path d="M157.248 113.665H183.36V87.5529H157.248V113.665Z" fill="#19222E"/>
<path d="M105.06 113.665H131.172V87.5529H105.06V113.665Z" fill="#19222E"/>
<path d="M52.8595 113.665H78.9717V87.5529H52.8595V113.665Z" fill="#19222E"/>
<path d="M0.610935 113.665H26.7231L26.7231 87.5529H0.610935L0.610935 113.665Z" fill="#19222E"/>
</svg>
